<svg width="342" height="147" viewBox="0 0 342 147" fill="none" xmlns="http://www.w3.org/2000/svg">
<path fill-rule="evenodd" clip-rule="evenodd" d="M248 25H184V147H159V25H94V24.5325C93.8947 24.5678 93.7919 24.6222 93.6957 24.6978L34.9605 70.8457C34.4501 71.2467 34.4511 72.0203 34.9625 72.42L93.8177 118.414C94.0727 118.613 94.3732 118.665 94.6455 118.604L94.6769 142.696C94.678 143.525 93.7289 143.995 93.0702 143.493L0.393325 72.7657C-0.130244 72.3661 -0.131269 71.5783 0.391258 71.1774L92.8837 0.208472C93.2354 -0.0613255 93.6708 -0.0529018 94 0.140112V6.73964e-06H248V0.0011428C248.221 -0.00946226 248.45 0.0537625 248.652 0.208472L341.144 71.1774C341.667 71.5783 341.666 72.3661 341.142 72.7657L248.465 143.493C247.807 143.995 246.858 143.525 246.859 142.696L246.89 118.604C247.162 118.665 247.463 118.613 247.718 118.414L306.573 72.42C307.084 72.0203 307.085 71.2467 306.575 70.8457L248 24.8237V25Z" fill="url(#paint0_linear_120_92)"/>
<defs>
<linearGradient id="paint0_linear_120_92" x1="171" y1="13.5" x2="171" y2="131" gradientUnits="userSpaceOnUse">
<stop stop-color="#8A2BE2"/>
<stop offset="1" stop-color="#00ACE2"/>
</linearGradient>
</defs>
</svg>
