<svg width="274" height="109" viewBox="0 0 274 109" fill="none" xmlns="http://www.w3.org/2000/svg">
<mask id="mask0_74_54" style="mask-type:alpha" maskUnits="userSpaceOnUse" x="0" y="0" width="274" height="109">
<line x1="64" y1="8.5" x2="210.003" y2="8.5" stroke="#6800BA" stroke-width="17"/>
<line x1="137.5" y1="94" x2="137.5" y2="2" stroke="#6800BA" stroke-width="17"/>
<line x1="215.99" y1="102.608" x2="267.608" y2="50.9896" stroke="#6800BA" stroke-width="17"/>
<line x1="216.01" y1="10.9896" x2="267.629" y2="62.6084" stroke="#6800BA" stroke-width="17"/>
<line y1="-8.5" x2="73" y2="-8.5" transform="matrix(-0.707107 -0.707107 -0.707107 0.707107 52 108.619)" stroke="#6800BA" stroke-width="17"/>
<line y1="-8.5" x2="73" y2="-8.5" transform="matrix(-0.707107 0.707107 0.707107 0.707107 64 17)" stroke="#6800BA" stroke-width="17"/>
<path d="M64 0V17L52 4.99999L64 0Z" fill="#6800BA"/>
<path d="M210 0V17L222 4.99999L210 0Z" fill="white"/>
<path d="M210 0V17L222 4.99999L210 0Z" fill="#6800BA"/>
</mask>
<g mask="url(#mask0_74_54)">
<rect width="274" height="109" fill="url(#paint0_linear_74_54)"/>
</g>
<defs>
<linearGradient id="paint0_linear_74_54" x1="137.458" y1="17.4097" x2="137.458" y2="102.187" gradientUnits="userSpaceOnUse">
<stop stop-color="#E058DB"/>
<stop offset="1" stop-color="#00ACE2"/>
</linearGradient>
</defs>
</svg>
